<?xml version="1.0" encoding="UTF-8"?>
<svg width="80px" height="80px" viewBox="0 0 80 80" version="1.1" xmlns="http://www.w3.org/2000/svg" xmlns:xlink="http://www.w3.org/1999/xlink">
    <title>Artboard</title>
    <defs>
        <linearGradient x1="2.44317747%" y1="83.8810079%" x2="77.2500392%" y2="11.4565176%" id="linearGradient-1">
            <stop stop-color="#DEFF00" offset="0%"></stop>
            <stop stop-color="#00C300" offset="54.0699537%"></stop>
            <stop stop-color="#00C300" offset="100%"></stop>
        </linearGradient>
        <polygon id="path-2" points="0 29.9405091 71.9583579 29.9405091 71.9583579 0 0 0"></polygon>
    </defs>
    <g id="Artboard" stroke="none" stroke-width="1" fill="none" fill-rule="evenodd">
        <g id="Assets" transform="translate(0.000482, 0.999194)">
            <g id="Shapes" fill="url(#linearGradient-1)">
                <path d="M29.0992052,1.06353926 C51.0552946,-1.59317321 76.5557201,9.75001254 79.0726898,29.9496198 C81.5894513,50.1492271 66.1989928,58.0695336 51.1715842,64.824038 C36.1440716,71.5785424 33.727893,74.5460111 20.6914552,76.123354 C7.65501738,77.7007995 2.12320293,69.6369934 0.864770136,59.5371385 C-0.393558542,49.4373861 3.36942113,4.17677002 29.0992052,1.06353926" id="Fill-1" transform="translate(39.999373, 38.501106) rotate(1.000000) translate(-39.999373, -38.501106) "></path>
            </g>
            <g id="Letters" transform="translate(5.191181, 13.934366)">
                <g id="Letter-shapes" transform="translate(0.000000, 10.937486)">
                    <path d="M8.79834445,9.36913889 L1.53933514,9.36913889 C0.801075559,9.36913889 0.2026996,8.77646426 0.2026996,8.04523883 C0.2026996,7.31401339 0.801075559,6.72133877 1.53933514,6.72133877 L8.79834445,6.72133877 C9.53660403,6.72133877 10.13498,7.31401339 10.13498,8.04523883 C10.13498,8.77646426 9.53660403,9.36913889 8.79834445,9.36913889" id="Fill-1" fill="#1E1E1E"></path>
                    <path d="M10.6043927,5.09192331 L7.63857129,5.09192331 C6.89023276,5.09192331 6.28368759,4.49924868 6.28368759,3.76802325 C6.28368759,3.03679781 6.89023276,2.44412319 7.63857129,2.44412319 L10.6043927,2.44412319 C11.3527312,2.44412319 11.9592764,3.03679781 11.9592764,3.76802325 C11.9592764,4.49924868 11.3527312,5.09192331 10.6043927,5.09192331" id="Fill-3" fill="#1E1E1E"></path>
                    <path d="M11.2075396,13.2390006 L7.84622278,13.2390006 C7.09514919,13.2390006 6.48638719,12.646326 6.48638719,11.9151005 C6.48638719,11.1838751 7.09514919,10.5912005 7.84622278,10.5912005 L11.2075396,10.5912005 C11.9586132,10.5912005 12.5673752,11.1838751 12.5673752,11.9151005 C12.5673752,12.646326 11.9586132,13.2390006 11.2075396,13.2390006" id="Fill-5" fill="#1E1E1E"></path>
                    <path d="M14.1478256,9.61377248 C15.2618983,10.2923295 16.9544581,10.9070606 18.4111963,10.9070606 C19.2681333,10.9070606 20.1463843,10.8437754 20.1463843,10.2285035 C20.1463843,9.82580466 19.8892486,9.72005902 19.439466,9.59267745 L17.4255548,9.08369205 C14.940547,8.42623004 13.7835728,7.26032354 13.7835728,5.09754128 C13.7835728,2.31975753 16.0972479,0.814707729 19.0752131,0.814707729 C21.0249087,0.814707729 22.2458252,1.19631155 23.3598979,1.74748702 L23.3598979,5.39422405 C22.117394,4.58882633 20.7677729,4.1433965 19.2894474,4.1433965 C18.496726,4.1433965 17.8969248,4.29187311 17.8969248,4.71593745 C17.8969248,5.09754128 18.1753747,5.24601789 18.6254305,5.35203397 L20.5106372,5.86074892 C23.1243495,6.60286153 24.323952,7.91778554 24.323952,9.95318623 C24.323952,13.0276527 21.646024,14.2573853 18.5396275,14.2573853 C16.7828521,14.2573853 15.1547812,13.7694949 14.1478256,13.2394145 L14.1478256,9.61377248 Z" id="Fill-7" fill="#1E1E1E"></path>
                    <path d="M25.1347504,4.49230308 L29.1328925,4.49230308 L29.1328925,5.28818169 C29.6589638,4.68599157 30.6058922,4.27721558 31.6789704,4.27721558 C33.7623202,4.27721558 35.0670308,5.65361096 35.0670308,7.82615931 L35.0670308,14.2573853 L31.0688887,14.2573853 L31.0688887,8.92299582 C31.0688887,8.34247905 30.7741814,7.86923168 30.1428958,7.86923168 C29.6589638,7.86923168 29.2593106,8.17018957 29.1328925,8.66511029 L29.1328925,14.2573853 L25.1347504,14.2573853 L25.1347504,4.49230308 Z" id="Fill-9" fill="#1E1E1E"></path>
                    <path d="M40.0069779,8.29490503 L42.2075395,8.29490503 C42.1211351,7.67201381 41.7328654,7.28507039 41.1503233,7.28507039 C40.5463177,7.28507039 40.1795116,7.69338887 40.0069779,8.29490503 L40.0069779,8.29490503 Z M40.0931072,10.3145743 C40.4384498,11.066264 41.1935256,11.345784 42.2504666,11.345784 C43.2644805,11.345784 44.0627585,11.1953365 45.098236,10.6368445 L45.098236,13.6016751 C44.3646237,14.1171429 43.0702081,14.4610622 41.5817952,14.4610622 C38.2810904,14.4610622 36.0805288,12.5918405 36.0805288,9.43353811 C36.0805288,6.36128408 38.1946859,4.27721558 40.9560509,4.27721558 C44.1706265,4.27721558 45.8101096,6.29688485 45.8101096,9.21869134 L45.8101096,10.3145743 L40.0931072,10.3145743 Z" id="Fill-11" fill="#1E1E1E"></path>
                    <mask id="mask-3" fill="white">
                        <use xlink:href="#path-2"></use>
                    </mask>
                    <g id="Clip-14"></g>
                    <polygon id="Fill-13" fill="#1E1E1E" mask="url(#mask-3)" points="46.8236076 14.2573853 50.6749 14.2573853 50.6749 0 46.8236076 0"></polygon>
                    <path d="M6.43887691,19.969432 L4.91383504,19.969432 L4.91383504,22.6429192 L6.43887691,22.6429192 C7.51292723,22.6429192 7.94254736,22.1256031 7.94254736,21.3060381 C7.94254736,20.4867481 7.51292723,19.969432 6.43887691,19.969432 L6.43887691,19.969432 Z M4.91383504,26.1145197 L4.91383504,29.7368321 L0.810798399,29.7368321 L0.810798399,16.4978315 L6.99754747,16.4978315 C9.91885476,16.4978315 11.9592764,18.2227684 11.9592764,21.3060381 C11.9592764,24.3893078 9.91885476,26.1145197 6.99754747,26.1145197 L4.91383504,26.1145197 Z" id="Fill-15" fill="#1E1E1E" mask="url(#mask-3)"></path>
                    <path d="M17.5382449,26.5787251 C17.3439725,26.3036333 16.9774416,26.1132266 16.5027675,26.1132266 C16.0280934,26.1132266 15.5536944,26.3249394 15.5536944,26.7898985 C15.5536944,27.2553971 16.0280934,27.4665705 16.5027675,27.4665705 C16.9774416,27.4665705 17.3439725,27.2764335 17.5382449,27.0013417 L17.5382449,26.5787251 Z M17.5382449,24.1894717 C17.5382449,23.6395577 16.9342393,23.1532925 15.5319557,23.1532925 C14.6904755,23.1532925 13.654998,23.3647356 12.8999222,23.7663157 L12.8999222,20.6793539 C13.7843295,20.2777738 15.1436861,19.9603394 16.6106354,19.9603394 C19.6956043,19.9603394 21.4861576,21.3136833 21.4861576,24.062444 L21.4861576,29.7714085 L17.5382449,29.7714085 L17.5382449,29.3061797 C17.214641,29.6233444 16.308495,29.9405091 15.2730176,29.9405091 C13.3960599,29.9405091 11.7565768,28.925636 11.7565768,26.8745837 C11.7565768,24.9926319 13.3960599,23.8510008 15.4887535,23.8510008 C16.265568,23.8510008 17.1499753,24.0834804 17.5382449,24.3585722 L17.5382449,24.1894717 Z" id="Fill-16" fill="#1E1E1E" mask="url(#mask-3)"></path>
                    <polygon id="Fill-17" fill="#1E1E1E" mask="url(#mask-3)" points="33.8508332 29.7368321 29.3691296 29.7368321 26.9989688 25.7007835 26.9989688 29.7368321 22.9050548 29.7368321 22.9050548 15.4794469 26.9989688 15.4794469 26.9989688 23.2879952 29.1968092 19.778485 33.7648104 19.778485 30.575647 24.428642"></polygon>
                    <polygon id="Fill-18" fill="#1E1E1E" mask="url(#mask-3)" points="45.60741 29.7368321 41.1257064 29.7368321 38.7555456 25.7007835 38.7555456 29.7368321 34.6616316 29.7368321 34.6616316 15.4794469 38.7555456 15.4794469 38.7555456 23.2879952 40.953386 19.778485 45.5213872 19.778485 42.3322238 24.428642"></polygon>
                    <path d="M49.1284599,23.7743519 L51.3290215,23.7743519 C51.2426171,23.1514607 50.8543474,22.7645172 50.2718053,22.7645172 C49.6677997,22.7645172 49.3009936,23.1728357 49.1284599,23.7743519 L49.1284599,23.7743519 Z M49.2145892,25.7940212 C49.5599318,26.5457108 50.3150076,26.8252309 51.3719486,26.8252309 C52.3859625,26.8252309 53.1842405,26.6747833 54.219718,26.1162913 L54.219718,29.081122 C53.4861057,29.5965898 52.1916901,29.9405091 50.7032772,29.9405091 C47.4025724,29.9405091 45.2020108,28.0712873 45.2020108,24.912985 C45.2020108,21.8407309 47.3161679,19.7566624 50.0775329,19.7566624 C53.2921085,19.7566624 54.9315916,21.7763317 54.9315916,24.6981382 L54.9315916,25.7940212 L49.2145892,25.7940212 Z" id="Fill-19" fill="#1E1E1E" mask="url(#mask-3)"></path>
                    <path d="M62.8368759,23.8002525 C62.3681132,23.5854394 61.9634827,23.4990203 61.3667274,23.4990203 C60.4506699,23.4990203 59.9180467,23.8647239 59.7903259,24.3596447 L59.7903259,29.7368321 L55.74239,29.7368321 L55.74239,19.9717499 L59.7903259,19.9717499 L59.7903259,20.7676286 C60.3014811,20.1654384 61.0044893,19.7566624 62.0058751,19.7566624 C62.3895812,19.7566624 62.6876871,19.8428072 62.8368759,19.9289519 L62.8368759,23.8002525 Z" id="Fill-20" fill="#1E1E1E" mask="url(#mask-3)"></path>
                </g>
                <path d="M11.1440393,7.26346498 C12.5420559,7.26346498 13.3502843,6.59919007 13.3502843,5.41220704 C13.3502843,4.6390346 12.8915601,4.0183187 12.2580838,3.81141341 C12.749574,3.63717736 13.1646102,3.11446924 13.1646102,2.39574557 C13.1646102,1.19787278 12.3563819,0.577156887 10.9583652,0.577156887 L7.76913967,0.577156887 L7.76913967,7.26346498 L11.1440393,7.26346498 Z M10.652549,3.13624875 L9.76786663,3.13624875 L9.76786663,2.27595829 L10.652549,2.27595829 C11.0020532,2.27595829 11.1986493,2.41752507 11.1986493,2.70065864 C11.1986493,2.98379221 11.0020532,3.13624875 10.652549,3.13624875 Z M10.7945351,5.55377382 L9.76786663,5.55377382 L9.76786663,4.64992435 L10.7945351,4.64992435 C11.1331173,4.64992435 11.3297134,4.8241604 11.3297134,5.10729396 C11.3297134,5.36864803 11.1331173,5.55377382 10.7945351,5.55377382 Z M15.9387996,7.26346498 L15.9387996,0.185125794 L13.8636186,0.185125794 L13.8636186,7.26346498 L15.9387996,7.26346498 Z M18.1668886,7.350583 C18.6911449,7.350583 19.1498691,7.18723671 19.3136992,7.02389042 L19.3136992,7.26346498 L21.3124261,7.26346498 L21.3124261,4.32323178 C21.3124261,2.90756394 20.4058997,2.21061978 18.8440529,2.21061978 C18.1013566,2.21061978 17.4132703,2.37396606 16.9654681,2.58087136 L16.9654681,4.17077524 C17.3477382,3.96386994 17.8719945,3.85497242 18.2979527,3.85497242 C19.007883,3.85497242 19.3136992,4.10543673 19.3136992,4.38857029 L19.3136992,4.47568831 C19.1171031,4.33412153 18.6693009,4.21433425 18.2761087,4.21433425 C17.2166742,4.21433425 16.3866018,4.80238089 16.3866018,5.77156887 C16.3866018,6.82787487 17.2166742,7.350583 18.1668886,7.350583 Z M18.7894429,6.07648194 C18.5491588,6.07648194 18.3088747,5.96758442 18.3088747,5.72800986 C18.3088747,5.4884353 18.5491588,5.37953778 18.7894429,5.37953778 C19.029727,5.37953778 19.2154011,5.47754555 19.3136992,5.61911233 L19.3136992,5.83690739 C19.2154011,5.97847417 19.029727,6.07648194 18.7894429,6.07648194 Z M24.3924316,7.3723625 C24.9276098,7.3723625 25.3754121,7.27435473 25.7139942,7.05655968 L25.7139942,5.40131728 C25.4081781,5.56466357 25.1351279,5.66267135 24.7637798,5.66267135 C24.2176795,5.66267135 23.7917213,5.40131728 23.7917213,4.79149114 C23.7917213,4.18166499 24.2176795,3.92031093 24.7637798,3.92031093 C25.1351279,3.92031093 25.4081781,4.0183187 25.7139942,4.18166499 L25.7139942,2.5264226 C25.3754121,2.30862755 24.9276098,2.21061978 24.3924316,2.21061978 C22.8305848,2.21061978 21.7493063,3.20158726 21.7493063,4.79149114 C21.7493063,6.38139502 22.8305848,7.3723625 24.3924316,7.3723625 Z M28.3680415,7.26346498 L28.3680415,5.2597505 L29.5694621,7.26346498 L31.8412391,7.26346498 L30.1810943,4.62814485 L31.7975511,2.3195173 L29.482086,2.3195173 L28.3680415,4.06187771 L28.3680415,0.185125794 L26.2928605,0.185125794 L26.2928605,7.26346498 L28.3680415,7.26346498 Z M36.3301833,7.26346498 L36.3301833,5.09640421 L38.9514645,5.09640421 L38.9514645,3.33226429 L36.3301833,3.33226429 L36.3301833,2.39574557 L39.2135927,2.39574557 L39.2135927,0.577156887 L34.2440803,0.577156887 L34.2440803,7.26346498 L36.3301833,7.26346498 Z M41.9113279,7.26346498 L41.9113279,4.54102683 C41.97686,4.29056252 42.2499101,4.10543673 42.7195563,4.10543673 C43.0253725,4.10543673 43.2328906,4.14899574 43.4731747,4.25789326 L43.4731747,2.2977378 C43.3967206,2.25417879 43.2438126,2.21061978 43.0472165,2.21061978 C42.5338822,2.21061978 42.1734561,2.41752507 41.9113279,2.72243815 L41.9113279,2.3195173 L39.8361469,2.3195173 L39.8361469,7.26346498 L41.9113279,7.26346498 Z M45.0240994,2.13439151 C45.6466537,2.13439151 46.17091,1.74236041 46.17091,1.06719575 C46.17091,0.392031093 45.6466537,0 45.0240994,0 C44.4015451,0 43.8772889,0.392031093 43.8772889,1.06719575 C43.8772889,1.74236041 44.4015451,2.13439151 45.0240994,2.13439151 Z M46.0616899,7.26346498 L46.0616899,2.3195173 L43.9865089,2.3195173 L43.9865089,7.26346498 L46.0616899,7.26346498 Z M48.6720492,7.3723625 C49.1635394,7.3723625 49.6441076,7.13278794 49.8734697,6.88232363 L49.8734697,7.26346498 L51.9486507,7.26346498 L51.9486507,0.185125794 L49.8734697,0.185125794 L49.8734697,2.70065864 C49.6441076,2.45019433 49.1635394,2.21061978 48.6720492,2.21061978 C47.2631105,2.21061978 46.5204141,3.36493355 46.5204141,4.79149114 C46.5204141,6.21804873 47.2631105,7.3723625 48.6720492,7.3723625 Z M49.2946035,5.63000209 C48.8577232,5.63000209 48.5955951,5.27064025 48.5955951,4.79149114 C48.5955951,4.31234202 48.8577232,3.95298019 49.2946035,3.95298019 C49.5567316,3.95298019 49.7860937,4.09454697 49.8734697,4.30145227 L49.8734697,5.28153 C49.7860937,5.4884353 49.5785756,5.63000209 49.2946035,5.63000209 Z M54.1767398,7.350583 C54.700996,7.350583 55.1597202,7.18723671 55.3235503,7.02389042 L55.3235503,7.26346498 L57.3222773,7.26346498 L57.3222773,4.32323178 C57.3222773,2.90756394 56.4157508,2.21061978 54.8539041,2.21061978 C54.1112077,2.21061978 53.4231214,2.37396606 52.9753192,2.58087136 L52.9753192,4.17077524 C53.3575894,3.96386994 53.8818456,3.85497242 54.3078038,3.85497242 C55.0177342,3.85497242 55.3235503,4.10543673 55.3235503,4.38857029 L55.3235503,4.47568831 C55.1269542,4.33412153 54.679152,4.21433425 54.2859598,4.21433425 C53.2265253,4.21433425 52.3964529,4.80238089 52.3964529,5.77156887 C52.3964529,6.82787487 53.2265253,7.350583 54.1767398,7.350583 Z M54.7992941,6.07648194 C54.55901,6.07648194 54.3187258,5.96758442 54.3187258,5.72800986 C54.3187258,5.4884353 54.55901,5.37953778 54.7992941,5.37953778 C55.0395782,5.37953778 55.2252523,5.47754555 55.3235503,5.61911233 L55.3235503,5.83690739 C55.2252523,5.97847417 55.0395782,6.07648194 54.7992941,6.07648194 Z M60.7736309,8.92959712 L63.2966141,2.3195173 L61.2541991,2.3195173 L60.5333468,4.66081411 L59.7797284,2.3195173 L57.6390154,2.3195173 L59.4629903,7.00211091 L58.7202939,8.92959712 L60.7736309,8.92959712 Z" id="BlackFriday" fill="#232323" fill-rule="nonzero"></path>
            </g>
        </g>
    </g>
</svg>